<mxfile host="Electron" modified="2023-09-27T19:26:41.676Z" agent="Mozilla/5.0 (Windows NT 10.0; Win64; x64) AppleWebKit/537.36 (KHTML, like Gecko) draw.io/21.8.2 Chrome/114.0.5735.289 Electron/25.8.1 Safari/537.36" etag="Q9OW36WbExvzdgrsw0rt" version="21.8.2" type="device">
  <diagram name="Страница — 1" id="aAJz8PeIyYf9gtP4vZeT">
    <mxGraphModel dx="1735" dy="1225" grid="1" gridSize="10" guides="1" tooltips="1" connect="1" arrows="1" fold="1" page="1" pageScale="1" pageWidth="827" pageHeight="1169" math="0" shadow="0">
      <root>
        <mxCell id="0" />
        <mxCell id="1" parent="0" />
        <mxCell id="xnzVwGYOZmCi8FnU8yy7-1" value="Задача: Написать программу, которая из имеющегося массива&#xa;строк формирует новый массив из строк, длина которых меньше,&#xa;либо равна 3 символам. Первоначальный массив можно ввести&#xa;с клавиатуры, либо задать на старте выполнения алгоритма.&#xa;При решении не рекомендуется пользоваться коллекциями,&#xa;лучше обойтись исключительно массивами.&#xa;&#xa;Примеры:&#xa;[“Hello”, “2”, “world”, “:-)”] —&gt; [“2”, “:-)”]&#xa;[“1234”, “1567”, “-2”, “computer science”] —&gt; [“-2”]&#xa;[“Russia”, “Denmark”, “Kazan”] —&gt; []" style="text;whiteSpace=wrap;" parent="1" vertex="1">
          <mxGeometry x="10" y="10" width="370" height="170" as="geometry" />
        </mxCell>
        <mxCell id="Z_jAE4F7uaUWW7qI_gUQ-4" style="edgeStyle=orthogonalEdgeStyle;rounded=0;orthogonalLoop=1;jettySize=auto;html=1;exitX=0.5;exitY=1;exitDx=0;exitDy=0;exitPerimeter=0;entryX=0.5;entryY=0;entryDx=0;entryDy=0;entryPerimeter=0;" parent="1" source="Z_jAE4F7uaUWW7qI_gUQ-1" target="qpcqUfOHio-ymFACplYv-1" edge="1">
          <mxGeometry relative="1" as="geometry">
            <mxPoint x="120" y="285" as="targetPoint" />
          </mxGeometry>
        </mxCell>
        <mxCell id="Z_jAE4F7uaUWW7qI_gUQ-1" value="Начало" style="strokeWidth=2;html=1;shape=mxgraph.flowchart.start_1;whiteSpace=wrap;" parent="1" vertex="1">
          <mxGeometry x="85" y="220" width="70" height="40" as="geometry" />
        </mxCell>
        <mxCell id="qpcqUfOHio-ymFACplYv-1" value="array1&lt;br&gt;array2&lt;br&gt;array3" style="strokeWidth=2;html=1;shape=mxgraph.flowchart.stored_data;whiteSpace=wrap;" vertex="1" parent="1">
          <mxGeometry x="85" y="290" width="70" height="50" as="geometry" />
        </mxCell>
        <mxCell id="qpcqUfOHio-ymFACplYv-10" style="edgeStyle=orthogonalEdgeStyle;rounded=0;orthogonalLoop=1;jettySize=auto;html=1;exitX=0.5;exitY=1;exitDx=0;exitDy=0;exitPerimeter=0;entryX=0.5;entryY=0;entryDx=0;entryDy=0;" edge="1" parent="1" source="qpcqUfOHio-ymFACplYv-3" target="qpcqUfOHio-ymFACplYv-9">
          <mxGeometry relative="1" as="geometry" />
        </mxCell>
        <mxCell id="qpcqUfOHio-ymFACplYv-3" value="Пояснение" style="strokeWidth=2;html=1;shape=mxgraph.flowchart.display;whiteSpace=wrap;" vertex="1" parent="1">
          <mxGeometry x="75" y="370" width="90" height="50" as="geometry" />
        </mxCell>
        <mxCell id="qpcqUfOHio-ymFACplYv-4" style="edgeStyle=orthogonalEdgeStyle;rounded=0;orthogonalLoop=1;jettySize=auto;html=1;exitX=0.5;exitY=1;exitDx=0;exitDy=0;exitPerimeter=0;entryX=0.5;entryY=0;entryDx=0;entryDy=0;entryPerimeter=0;" edge="1" parent="1" source="qpcqUfOHio-ymFACplYv-1" target="qpcqUfOHio-ymFACplYv-3">
          <mxGeometry relative="1" as="geometry" />
        </mxCell>
        <mxCell id="qpcqUfOHio-ymFACplYv-5" value="" style="strokeWidth=2;html=1;shape=mxgraph.flowchart.annotation_2;align=left;labelPosition=right;pointerEvents=1;dashed=1;" vertex="1" parent="1">
          <mxGeometry x="165" y="373.75" width="85" height="42.5" as="geometry" />
        </mxCell>
        <mxCell id="qpcqUfOHio-ymFACplYv-8" value="Описание действия программы" style="text;html=1;strokeColor=none;fillColor=none;align=left;verticalAlign=middle;whiteSpace=wrap;rounded=0;" vertex="1" parent="1">
          <mxGeometry x="210" y="380" width="120" height="30" as="geometry" />
        </mxCell>
        <mxCell id="qpcqUfOHio-ymFACplYv-9" value="&lt;p style=&quot;line-height: 120%;&quot;&gt;&lt;b&gt;ППР_1&lt;/b&gt;&lt;/p&gt;&lt;p style=&quot;line-height: 120%;&quot;&gt;Обработка&lt;br&gt;array1&lt;/p&gt;" style="shape=process;whiteSpace=wrap;backgroundOutline=1;strokeWidth=2;html=1;" vertex="1" parent="1">
          <mxGeometry x="60" y="450" width="120" height="70" as="geometry" />
        </mxCell>
        <mxCell id="qpcqUfOHio-ymFACplYv-19" style="edgeStyle=orthogonalEdgeStyle;rounded=0;orthogonalLoop=1;jettySize=auto;html=1;exitX=0.5;exitY=1;exitDx=0;exitDy=0;exitPerimeter=0;entryX=0.5;entryY=0;entryDx=0;entryDy=0;" edge="1" parent="1" source="qpcqUfOHio-ymFACplYv-14" target="qpcqUfOHio-ymFACplYv-18">
          <mxGeometry relative="1" as="geometry" />
        </mxCell>
        <mxCell id="qpcqUfOHio-ymFACplYv-14" value="Результат обработки array1" style="strokeWidth=2;html=1;shape=mxgraph.flowchart.display;whiteSpace=wrap;" vertex="1" parent="1">
          <mxGeometry x="72.5" y="550" width="95" height="60" as="geometry" />
        </mxCell>
        <mxCell id="qpcqUfOHio-ymFACplYv-15" style="edgeStyle=orthogonalEdgeStyle;rounded=0;orthogonalLoop=1;jettySize=auto;html=1;exitX=0.5;exitY=1;exitDx=0;exitDy=0;entryX=0.5;entryY=0;entryDx=0;entryDy=0;entryPerimeter=0;" edge="1" parent="1" source="qpcqUfOHio-ymFACplYv-9" target="qpcqUfOHio-ymFACplYv-14">
          <mxGeometry relative="1" as="geometry" />
        </mxCell>
        <mxCell id="qpcqUfOHio-ymFACplYv-16" value="" style="strokeWidth=2;html=1;shape=mxgraph.flowchart.annotation_2;align=left;labelPosition=right;pointerEvents=1;dashed=1;" vertex="1" parent="1">
          <mxGeometry x="150" y="293.75" width="85" height="42.5" as="geometry" />
        </mxCell>
        <mxCell id="qpcqUfOHio-ymFACplYv-17" value="Массивы, заданные в условии задачи" style="text;html=1;strokeColor=none;fillColor=none;align=left;verticalAlign=middle;whiteSpace=wrap;rounded=0;" vertex="1" parent="1">
          <mxGeometry x="200" y="300" width="120" height="30" as="geometry" />
        </mxCell>
        <mxCell id="qpcqUfOHio-ymFACplYv-18" value="&lt;p style=&quot;line-height: 120%;&quot;&gt;&lt;b&gt;ППР_1&lt;/b&gt;&lt;/p&gt;&lt;p style=&quot;line-height: 120%;&quot;&gt;Обработка&lt;br&gt;array2&lt;/p&gt;" style="shape=process;whiteSpace=wrap;backgroundOutline=1;strokeWidth=2;html=1;" vertex="1" parent="1">
          <mxGeometry x="60" y="645" width="120" height="70" as="geometry" />
        </mxCell>
        <mxCell id="qpcqUfOHio-ymFACplYv-23" style="edgeStyle=orthogonalEdgeStyle;rounded=0;orthogonalLoop=1;jettySize=auto;html=1;exitX=0.5;exitY=1;exitDx=0;exitDy=0;exitPerimeter=0;entryX=0.5;entryY=0;entryDx=0;entryDy=0;" edge="1" parent="1" source="qpcqUfOHio-ymFACplYv-20" target="qpcqUfOHio-ymFACplYv-22">
          <mxGeometry relative="1" as="geometry" />
        </mxCell>
        <mxCell id="qpcqUfOHio-ymFACplYv-20" value="Результат обработки array2" style="strokeWidth=2;html=1;shape=mxgraph.flowchart.display;whiteSpace=wrap;" vertex="1" parent="1">
          <mxGeometry x="72.5" y="750" width="95" height="60" as="geometry" />
        </mxCell>
        <mxCell id="qpcqUfOHio-ymFACplYv-21" style="edgeStyle=orthogonalEdgeStyle;rounded=0;orthogonalLoop=1;jettySize=auto;html=1;exitX=0.5;exitY=1;exitDx=0;exitDy=0;entryX=0.5;entryY=0;entryDx=0;entryDy=0;entryPerimeter=0;" edge="1" parent="1" source="qpcqUfOHio-ymFACplYv-18" target="qpcqUfOHio-ymFACplYv-20">
          <mxGeometry relative="1" as="geometry" />
        </mxCell>
        <mxCell id="qpcqUfOHio-ymFACplYv-22" value="&lt;p style=&quot;line-height: 120%;&quot;&gt;&lt;b&gt;ППР_1&lt;/b&gt;&lt;/p&gt;&lt;p style=&quot;line-height: 120%;&quot;&gt;Обработка&lt;br&gt;array3&lt;/p&gt;" style="shape=process;whiteSpace=wrap;backgroundOutline=1;strokeWidth=2;html=1;" vertex="1" parent="1">
          <mxGeometry x="60" y="840" width="120" height="70" as="geometry" />
        </mxCell>
        <mxCell id="qpcqUfOHio-ymFACplYv-24" value="Результат обработки array3" style="strokeWidth=2;html=1;shape=mxgraph.flowchart.display;whiteSpace=wrap;" vertex="1" parent="1">
          <mxGeometry x="72.5" y="950" width="95" height="60" as="geometry" />
        </mxCell>
        <mxCell id="qpcqUfOHio-ymFACplYv-25" style="edgeStyle=orthogonalEdgeStyle;rounded=0;orthogonalLoop=1;jettySize=auto;html=1;exitX=0.5;exitY=1;exitDx=0;exitDy=0;entryX=0.5;entryY=0;entryDx=0;entryDy=0;entryPerimeter=0;" edge="1" parent="1" source="qpcqUfOHio-ymFACplYv-22" target="qpcqUfOHio-ymFACplYv-24">
          <mxGeometry relative="1" as="geometry" />
        </mxCell>
        <mxCell id="qpcqUfOHio-ymFACplYv-26" value="Приглашение к вводу" style="strokeWidth=2;html=1;shape=mxgraph.flowchart.display;whiteSpace=wrap;" vertex="1" parent="1">
          <mxGeometry x="390" y="480" width="120" height="65" as="geometry" />
        </mxCell>
        <mxCell id="qpcqUfOHio-ymFACplYv-27" style="edgeStyle=orthogonalEdgeStyle;rounded=0;orthogonalLoop=1;jettySize=auto;html=1;exitX=0.5;exitY=1;exitDx=0;exitDy=0;exitPerimeter=0;entryX=0.5;entryY=0;entryDx=0;entryDy=0;entryPerimeter=0;" edge="1" parent="1" source="qpcqUfOHio-ymFACplYv-24" target="qpcqUfOHio-ymFACplYv-26">
          <mxGeometry relative="1" as="geometry">
            <Array as="points">
              <mxPoint x="120" y="1030" />
              <mxPoint x="230" y="1030" />
              <mxPoint x="230" y="430" />
              <mxPoint x="450" y="430" />
            </Array>
          </mxGeometry>
        </mxCell>
        <mxCell id="qpcqUfOHio-ymFACplYv-40" style="edgeStyle=orthogonalEdgeStyle;rounded=0;orthogonalLoop=1;jettySize=auto;html=1;exitX=0.5;exitY=1;exitDx=0;exitDy=0;entryX=0.5;entryY=0;entryDx=0;entryDy=0;" edge="1" parent="1" source="qpcqUfOHio-ymFACplYv-28" target="qpcqUfOHio-ymFACplYv-39">
          <mxGeometry relative="1" as="geometry" />
        </mxCell>
        <mxCell id="qpcqUfOHio-ymFACplYv-28" value="Ввод&lt;br&gt;строки" style="html=1;strokeWidth=2;shape=manualInput;whiteSpace=wrap;rounded=1;size=26;arcSize=11;verticalAlign=bottom;" vertex="1" parent="1">
          <mxGeometry x="400" y="570" width="100" height="55" as="geometry" />
        </mxCell>
        <mxCell id="qpcqUfOHio-ymFACplYv-30" style="edgeStyle=orthogonalEdgeStyle;rounded=0;orthogonalLoop=1;jettySize=auto;html=1;exitX=0.5;exitY=1;exitDx=0;exitDy=0;exitPerimeter=0;entryX=0.497;entryY=0.236;entryDx=0;entryDy=0;entryPerimeter=0;" edge="1" parent="1" source="qpcqUfOHio-ymFACplYv-26" target="qpcqUfOHio-ymFACplYv-28">
          <mxGeometry relative="1" as="geometry" />
        </mxCell>
        <mxCell id="qpcqUfOHio-ymFACplYv-34" style="edgeStyle=orthogonalEdgeStyle;rounded=0;orthogonalLoop=1;jettySize=auto;html=1;exitX=0.5;exitY=1;exitDx=0;exitDy=0;entryX=0.5;entryY=0;entryDx=0;entryDy=0;" edge="1" parent="1" source="qpcqUfOHio-ymFACplYv-31" target="qpcqUfOHio-ymFACplYv-33">
          <mxGeometry relative="1" as="geometry" />
        </mxCell>
        <mxCell id="qpcqUfOHio-ymFACplYv-31" value="Преобразование строки в массив строк" style="rounded=1;whiteSpace=wrap;html=1;absoluteArcSize=1;arcSize=0;strokeWidth=2;" vertex="1" parent="1">
          <mxGeometry x="395" y="780" width="110" height="60" as="geometry" />
        </mxCell>
        <mxCell id="qpcqUfOHio-ymFACplYv-33" value="&lt;p style=&quot;line-height: 120%;&quot;&gt;&lt;b&gt;ППР_1&lt;/b&gt;&lt;/p&gt;&lt;p style=&quot;line-height: 120%;&quot;&gt;Обработка&lt;br&gt;массива&lt;/p&gt;" style="shape=process;whiteSpace=wrap;backgroundOutline=1;strokeWidth=2;html=1;" vertex="1" parent="1">
          <mxGeometry x="390" y="870" width="120" height="70" as="geometry" />
        </mxCell>
        <mxCell id="qpcqUfOHio-ymFACplYv-35" value="Результат обработки массива" style="strokeWidth=2;html=1;shape=mxgraph.flowchart.display;whiteSpace=wrap;" vertex="1" parent="1">
          <mxGeometry x="402.5" y="975" width="95" height="60" as="geometry" />
        </mxCell>
        <mxCell id="qpcqUfOHio-ymFACplYv-36" style="edgeStyle=orthogonalEdgeStyle;rounded=0;orthogonalLoop=1;jettySize=auto;html=1;exitX=0.5;exitY=1;exitDx=0;exitDy=0;entryX=0.5;entryY=0;entryDx=0;entryDy=0;entryPerimeter=0;" edge="1" parent="1" source="qpcqUfOHio-ymFACplYv-33" target="qpcqUfOHio-ymFACplYv-35">
          <mxGeometry relative="1" as="geometry" />
        </mxCell>
        <mxCell id="qpcqUfOHio-ymFACplYv-47" style="edgeStyle=orthogonalEdgeStyle;rounded=0;orthogonalLoop=1;jettySize=auto;html=1;exitX=0.5;exitY=1;exitDx=0;exitDy=0;exitPerimeter=0;entryX=0.507;entryY=0.233;entryDx=0;entryDy=0;entryPerimeter=0;" edge="1" parent="1" source="qpcqUfOHio-ymFACplYv-37" target="qpcqUfOHio-ymFACplYv-54">
          <mxGeometry relative="1" as="geometry">
            <Array as="points">
              <mxPoint x="450" y="1160" />
              <mxPoint x="770" y="1160" />
              <mxPoint x="770" y="550" />
              <mxPoint x="666" y="550" />
            </Array>
          </mxGeometry>
        </mxCell>
        <mxCell id="qpcqUfOHio-ymFACplYv-37" value="Запрос на продолжение" style="strokeWidth=2;html=1;shape=mxgraph.flowchart.display;whiteSpace=wrap;" vertex="1" parent="1">
          <mxGeometry x="396.25" y="1080" width="107.5" height="60" as="geometry" />
        </mxCell>
        <mxCell id="qpcqUfOHio-ymFACplYv-38" style="edgeStyle=orthogonalEdgeStyle;rounded=0;orthogonalLoop=1;jettySize=auto;html=1;exitX=0.5;exitY=1;exitDx=0;exitDy=0;exitPerimeter=0;entryX=0.5;entryY=0;entryDx=0;entryDy=0;entryPerimeter=0;" edge="1" parent="1" source="qpcqUfOHio-ymFACplYv-35" target="qpcqUfOHio-ymFACplYv-37">
          <mxGeometry relative="1" as="geometry" />
        </mxCell>
        <mxCell id="qpcqUfOHio-ymFACplYv-41" value="Нет" style="edgeStyle=orthogonalEdgeStyle;rounded=0;orthogonalLoop=1;jettySize=auto;html=1;exitX=0.5;exitY=1;exitDx=0;exitDy=0;entryX=0.5;entryY=0;entryDx=0;entryDy=0;" edge="1" parent="1" source="qpcqUfOHio-ymFACplYv-39" target="qpcqUfOHio-ymFACplYv-31">
          <mxGeometry relative="1" as="geometry" />
        </mxCell>
        <mxCell id="qpcqUfOHio-ymFACplYv-39" value="Длина строки = 0" style="rhombus;whiteSpace=wrap;html=1;strokeWidth=2;" vertex="1" parent="1">
          <mxGeometry x="380" y="655" width="140" height="80" as="geometry" />
        </mxCell>
        <mxCell id="qpcqUfOHio-ymFACplYv-45" style="edgeStyle=orthogonalEdgeStyle;rounded=0;orthogonalLoop=1;jettySize=auto;html=1;exitX=0.5;exitY=1;exitDx=0;exitDy=0;exitPerimeter=0;" edge="1" parent="1" source="qpcqUfOHio-ymFACplYv-42">
          <mxGeometry relative="1" as="geometry">
            <mxPoint x="230" y="810" as="targetPoint" />
            <Array as="points">
              <mxPoint x="320" y="810" />
            </Array>
          </mxGeometry>
        </mxCell>
        <mxCell id="qpcqUfOHio-ymFACplYv-42" value="Оповещение" style="strokeWidth=2;html=1;shape=mxgraph.flowchart.display;whiteSpace=wrap;" vertex="1" parent="1">
          <mxGeometry x="270" y="730" width="100" height="60" as="geometry" />
        </mxCell>
        <mxCell id="qpcqUfOHio-ymFACplYv-44" value="Да" style="edgeStyle=orthogonalEdgeStyle;rounded=0;orthogonalLoop=1;jettySize=auto;html=1;exitX=0;exitY=0.5;exitDx=0;exitDy=0;entryX=0.5;entryY=0;entryDx=0;entryDy=0;entryPerimeter=0;" edge="1" parent="1" source="qpcqUfOHio-ymFACplYv-39" target="qpcqUfOHio-ymFACplYv-42">
          <mxGeometry x="-0.3684" relative="1" as="geometry">
            <mxPoint as="offset" />
          </mxGeometry>
        </mxCell>
        <mxCell id="qpcqUfOHio-ymFACplYv-48" value="Да" style="edgeStyle=orthogonalEdgeStyle;rounded=0;orthogonalLoop=1;jettySize=auto;html=1;exitX=0;exitY=0.5;exitDx=0;exitDy=0;" edge="1" parent="1" source="qpcqUfOHio-ymFACplYv-46">
          <mxGeometry x="-0.8481" relative="1" as="geometry">
            <mxPoint x="450" y="450.0000000000002" as="targetPoint" />
            <Array as="points">
              <mxPoint x="540" y="695" />
              <mxPoint x="540" y="450" />
            </Array>
            <mxPoint as="offset" />
          </mxGeometry>
        </mxCell>
        <mxCell id="qpcqUfOHio-ymFACplYv-50" value="Нет" style="edgeStyle=orthogonalEdgeStyle;rounded=0;orthogonalLoop=1;jettySize=auto;html=1;exitX=0.5;exitY=1;exitDx=0;exitDy=0;entryX=0.5;entryY=0;entryDx=0;entryDy=0;" edge="1" parent="1" source="qpcqUfOHio-ymFACplYv-46" target="qpcqUfOHio-ymFACplYv-49">
          <mxGeometry relative="1" as="geometry" />
        </mxCell>
        <mxCell id="qpcqUfOHio-ymFACplYv-46" value="Клавиша «Y»" style="rhombus;whiteSpace=wrap;html=1;strokeWidth=2;" vertex="1" parent="1">
          <mxGeometry x="600" y="660" width="130" height="70" as="geometry" />
        </mxCell>
        <mxCell id="qpcqUfOHio-ymFACplYv-53" value="Нет" style="edgeStyle=orthogonalEdgeStyle;rounded=0;orthogonalLoop=1;jettySize=auto;html=1;exitX=0;exitY=0.5;exitDx=0;exitDy=0;" edge="1" parent="1" source="qpcqUfOHio-ymFACplYv-49">
          <mxGeometry x="-0.8987" relative="1" as="geometry">
            <mxPoint x="450" y="1060" as="targetPoint" />
            <Array as="points">
              <mxPoint x="550" y="815" />
              <mxPoint x="550" y="1060" />
            </Array>
            <mxPoint as="offset" />
          </mxGeometry>
        </mxCell>
        <mxCell id="qpcqUfOHio-ymFACplYv-49" value="Клавиша «N»" style="rhombus;whiteSpace=wrap;html=1;strokeWidth=2;" vertex="1" parent="1">
          <mxGeometry x="600" y="780" width="130" height="70" as="geometry" />
        </mxCell>
        <mxCell id="qpcqUfOHio-ymFACplYv-51" value="Конец" style="strokeWidth=2;html=1;shape=mxgraph.flowchart.terminator;whiteSpace=wrap;" vertex="1" parent="1">
          <mxGeometry x="627.5" y="900" width="75" height="40" as="geometry" />
        </mxCell>
        <mxCell id="qpcqUfOHio-ymFACplYv-52" value="Да" style="edgeStyle=orthogonalEdgeStyle;rounded=0;orthogonalLoop=1;jettySize=auto;html=1;exitX=0.5;exitY=1;exitDx=0;exitDy=0;entryX=0.5;entryY=0;entryDx=0;entryDy=0;entryPerimeter=0;" edge="1" parent="1" source="qpcqUfOHio-ymFACplYv-49" target="qpcqUfOHio-ymFACplYv-51">
          <mxGeometry relative="1" as="geometry" />
        </mxCell>
        <mxCell id="qpcqUfOHio-ymFACplYv-55" style="edgeStyle=orthogonalEdgeStyle;rounded=0;orthogonalLoop=1;jettySize=auto;html=1;exitX=0.5;exitY=1;exitDx=0;exitDy=0;entryX=0.5;entryY=0;entryDx=0;entryDy=0;" edge="1" parent="1" source="qpcqUfOHio-ymFACplYv-54" target="qpcqUfOHio-ymFACplYv-46">
          <mxGeometry relative="1" as="geometry" />
        </mxCell>
        <mxCell id="qpcqUfOHio-ymFACplYv-54" value="Клавиша" style="html=1;strokeWidth=2;shape=manualInput;whiteSpace=wrap;rounded=1;size=26;arcSize=11;verticalAlign=bottom;" vertex="1" parent="1">
          <mxGeometry x="615" y="575" width="100" height="50" as="geometry" />
        </mxCell>
      </root>
    </mxGraphModel>
  </diagram>
</mxfile>
